<svg width="289" height="304" viewBox="0 0 289 304" fill="none" xmlns="http://www.w3.org/2000/svg">
<path d="M26.0062 89.2096C26.0062 88.9953 26.0062 88.7809 26.0062 88.56C26.2861 88.1703 26.182 87.722 26.1689 87.2998C25.9997 82.1095 26.3056 76.9387 26.7027 71.7743C26.8394 70.0204 27.0478 68.2535 27.3082 66.5061C27.3082 65.8565 27.3082 65.2069 27.3082 64.5638C27.6271 64.0116 27.4774 63.4075 27.4644 62.8293C27.3602 57.0414 27.7378 51.2795 28.4343 45.5305C28.558 44.5236 28.2716 43.4972 28.6101 42.5034C28.6101 39.5282 28.6882 36.553 28.5841 33.5908C28.5059 31.4212 29.0853 29.31 28.9486 27.1468C28.8965 26.3413 29.3327 25.958 30.1399 25.971C30.576 25.971 31.0057 25.971 31.4418 25.971C92.7506 25.971 154.059 25.971 215.368 25.971C217.829 25.971 218.154 26.2179 218.109 28.6149C217.998 34.4418 218.629 40.2492 218.48 46.0827C218.428 48.0574 219.137 49.9932 219.137 51.994C219.137 52.767 219.775 52.9294 220.42 52.884C222.724 52.7346 225.022 53.0009 227.333 52.9424C230.236 52.8645 233.081 53.67 235.958 54.0143C236.173 54.0403 236.388 54.1897 236.583 54.1572C239.239 53.7155 241.602 55.0341 244.096 55.4954C245.853 55.8202 247.507 56.8076 249.193 57.4312C251.816 58.4056 253.925 60.0621 256.165 61.5366C260.376 64.3169 263.859 67.8443 266.684 72.0797C267.68 73.5737 268.898 74.9964 269.581 76.6204C270.2 78.0885 271.085 79.4201 271.573 81.0117C272.094 82.7201 272.432 84.526 273.136 86.1565C273.689 87.4362 273.826 88.7484 273.995 90.0411C276.039 105.385 274.568 120.806 275.004 136.189C275.017 136.565 275.03 136.955 274.685 137.222C274.379 137.436 274.118 137.352 273.884 137.098C273.389 136.182 273.507 135.182 273.611 134.24C274.613 125.256 274.132 116.239 274.151 107.243C274.151 103.975 273.871 100.695 273.376 97.4465C273.064 95.4263 273.149 93.3671 273.005 91.3208C272.856 89.2356 272.048 87.3518 271.677 85.351C269.295 78.0885 265.565 71.6574 259.979 66.3632C255.221 61.8485 249.635 58.6199 243.399 56.7751C239.656 55.6643 235.77 54.8717 231.74 54.9822C228.179 55.0796 224.612 54.6899 221.032 54.6574C218.395 54.6314 217.21 53.4101 217.314 50.8182C217.62 43.2894 216.579 35.832 216.318 28.3356C216.279 27.2053 215.778 26.7895 214.717 26.8285C214.177 26.848 213.636 26.8285 213.09 26.8285C153.402 26.8285 93.7075 26.8285 34.0197 26.8285C30.9862 26.8285 31.0382 26.835 30.6476 29.7517C29.7428 36.566 29.554 43.4193 29.4629 50.2791C29.4238 52.9944 28.8314 55.6383 28.6947 58.3406C28.5971 60.2309 28.4864 62.1148 28.4734 64.0051C28.4474 68.7082 28.1609 73.3854 27.6467 78.0625C27.3342 80.8947 27.0803 83.7595 27.1649 86.6307C27.3016 91.2299 26.7874 95.7901 26.3512 100.363C26.0778 103.254 25.8369 106.171 25.876 109.094C25.9281 113.907 25.4724 118.682 25.0623 123.476C24.6912 127.822 24.4308 132.2 24.561 136.585C24.5871 137.436 24.6977 138.326 24.19 139.112C23.2786 139.411 22.9141 138.813 23.0182 138.131C23.526 134.825 23.5065 131.486 23.7343 128.166C23.7343 127.731 23.7343 127.302 23.7343 126.867C23.9882 126.536 23.9036 126.146 23.897 125.776C23.8059 121.534 23.8515 117.279 24.4699 113.102C24.9777 109.679 24.5936 106.262 25.0362 102.864C25.3878 100.409 25.0753 97.9273 25.3617 95.4718C25.6026 93.3995 25.5766 91.2948 26.0127 89.2421L26.0062 89.2096Z" fill="#0E0E10"/>
<path d="M22.4262 246.186C22.4262 246.075 22.4262 245.971 22.4262 245.861C21.2544 244.809 21.3781 243.327 21.1242 241.97C21.1242 241.859 21.1242 241.755 21.1242 241.645C20.1087 239.371 20.0306 236.929 19.8223 234.506C19.8223 234.395 19.8223 234.292 19.8223 234.181C19.0932 232.336 19.0802 230.361 19.0541 228.452C18.937 220.065 18.8068 211.672 19.3992 203.293C19.4903 202.032 19.5033 200.727 19.8223 199.473C20.1608 198.804 19.985 198.089 19.9785 197.407C19.8939 190.288 20.2715 183.194 21.1242 176.126C21.1242 175.802 21.1242 175.477 21.1242 175.152C21.4758 174.028 21.1828 172.865 21.3 171.735C21.3456 171.319 21.0266 170.748 21.7166 170.553C22.309 171.027 22.2179 171.716 22.2309 172.346C22.2634 173.807 22.3155 175.269 22.2309 176.724C22.0031 180.44 21.9705 184.162 21.4627 187.865C21.1503 190.158 20.9224 192.49 20.9745 194.802C21.1047 200.317 20.7597 205.82 20.5253 211.315C20.3626 215.135 19.8939 218.948 20.0632 222.781C20.1868 225.58 20.7402 228.348 20.6946 231.167C20.636 234.967 21.4627 238.67 22.3741 242.314C23.4287 246.517 25.3621 250.395 27.4973 254.169C30.7977 260.003 35.4912 264.68 40.4582 269.013C44.4942 272.527 49.1942 275.158 54.2523 277.074C57.2859 278.224 60.3715 279.01 63.5808 279.556C72.7139 281.115 81.8992 281.732 91.156 281.719C114.279 281.699 137.408 281.699 160.53 281.732C162.763 281.732 164.983 281.602 167.164 281.264C170.653 280.725 174.194 280.868 177.664 280.355C180.268 279.971 182.865 279.432 185.437 278.848C190.338 277.73 194.876 275.697 199.081 273.001C203.039 270.461 206.737 267.571 209.959 264.082C212.504 261.334 214.717 258.359 216.872 255.319C217.907 253.857 218.376 252.078 219.587 250.733C221.084 249.148 221.553 247.037 222.152 245.094C223.714 240.027 224.97 234.876 224.827 229.491C224.788 228.101 224.853 228.101 225.712 227.815C225.68 229.075 225.914 230.342 225.582 231.589C226.175 235.363 225.042 239.001 224.111 242.496C222.998 246.692 221.156 250.7 218.851 254.527C216.54 258.366 213.865 261.867 210.838 265.063C207.459 268.629 203.775 271.929 199.4 274.313C198.717 274.684 198.267 275.554 197.304 275.366C195.598 276.327 193.932 277.289 192.018 277.938C190.495 278.458 188.835 278.822 187.429 279.692C186.55 280.238 185.521 279.855 184.623 280.231C176.173 282.089 167.619 282.713 158.975 282.687C133.163 282.615 107.346 282.648 81.5346 282.674C76.9974 282.674 72.5382 282.005 68.053 281.485C65.4881 281.186 62.9558 280.848 60.4561 280.238C59.3625 279.952 58.1386 280.088 57.2077 279.263C56.6088 278.841 55.8602 279.341 55.2548 278.939C54.5778 278.672 53.9138 278.373 53.3019 277.964C51.7721 277.977 50.8542 276.522 49.4026 276.34C47.4106 274.982 45.0606 274.229 43.1727 272.676C42.8407 272.404 42.4957 272.163 42.2484 271.799C41.7406 271.572 41.1938 271.397 40.9464 270.825C40.8357 270.715 40.7316 270.611 40.6209 270.5C39.3515 269.87 38.2969 268.967 37.3726 267.902C35.1658 265.882 32.9655 263.855 31.1948 261.412C28.1092 257.781 25.7527 253.695 23.7216 249.414C23.2529 248.349 22.4848 247.4 22.4197 246.173L22.4262 246.186Z" fill="#100F12"/>
<path d="M272.719 148.238C272.745 149.752 272.348 151.084 271.769 152.532C271.215 153.916 270.597 155.339 270.043 156.735C269.431 158.288 268.455 159.736 267.433 161.081C265.597 163.498 263.794 165.992 261.646 168.116C258.742 170.981 255.494 173.495 251.816 175.366C248.594 177.003 245.326 178.575 241.733 179.244C238.543 179.835 235.405 180.569 232.085 180.446C230.243 180.374 228.335 180.673 226.448 180.68C225.374 180.68 225.211 181.355 225.263 182.2C225.432 184.83 225.666 187.455 225.601 190.099C225.53 193.015 225.588 195.932 225.588 198.849C225.38 198.946 225.211 198.901 225.081 198.712C224.495 197.218 224.703 195.607 224.605 194.081C224.352 190.268 224.052 186.454 223.857 182.635C223.746 180.446 224.345 179.874 226.539 179.634C227.457 179.53 228.381 179.575 229.299 179.588C234.474 179.66 239.5 178.744 244.447 177.334C244.61 177.289 244.779 177.237 244.935 177.178C247.513 176.392 250.026 175.463 252.226 173.852C252.35 173.761 252.487 173.69 252.63 173.631C254.342 173.105 255.514 171.806 256.816 170.689C260.194 168.123 262.739 164.745 265.623 161.692C267.023 160.016 268.038 158.093 269.08 156.19C269.139 156.06 269.21 155.93 269.275 155.8C269.588 154.838 270.271 154.026 270.46 153.013C270.493 152.87 270.538 152.727 270.59 152.591C271.202 151.24 271.645 149.817 272.146 148.427C272.237 148.297 272.354 148.212 272.504 148.167C272.576 148.199 272.647 148.225 272.712 148.258L272.719 148.238Z" fill="#0E0E0F"/>
<path d="M60.4624 280.238C63.1509 280.342 65.7223 281.225 68.4303 281.368C72.232 281.563 76.0207 282.44 79.8159 282.453C108.302 282.55 136.789 282.524 165.282 282.479C169.208 282.479 173.081 281.543 176.987 281.374C179.604 281.264 182.032 280.199 184.636 280.231C182.806 281.219 180.854 281.576 178.777 281.55C175.874 281.517 173.1 282.661 170.178 282.654C169.507 282.654 168.798 282.823 168.094 282.823C137.616 282.823 107.131 282.823 76.6521 282.823C73.8595 282.823 71.1579 282.096 68.4108 281.712C67.8249 281.628 67.239 281.478 66.6532 281.537C64.4464 281.764 62.4479 281.05 60.4624 280.231V280.238Z" fill="#0E0D0F"/>
<path d="M21.775 170.617C21.1241 171.468 21.5928 172.449 21.4495 173.365C21.3584 173.969 21.6774 174.645 21.1241 175.158C21.1241 171.377 21.0915 167.597 21.1371 163.822C21.1631 161.419 21.3389 159.041 21.9768 156.67C22.4325 154.994 22.3739 153.156 22.4065 151.389C22.4651 148.044 22.5171 144.692 22.3935 141.346C22.3023 138.787 22.7775 136.299 23.2332 133.837C23.5912 131.927 22.8817 129.965 23.7214 128.127C23.7084 131.336 23.8712 134.564 23.3439 137.748C23.2202 138.495 23.4611 138.852 24.0404 139.157C24.4831 139.742 24.2878 140.404 24.2292 141.028C23.5587 147.615 23.3699 154.228 23.2397 160.841C23.1876 163.582 22.5171 166.278 22.4716 169.032C22.4586 169.61 22.2763 170.208 21.775 170.617Z" fill="#0E0D0F"/>
<path d="M19.8286 199.479C19.5031 208.386 18.9628 217.279 19.1386 226.198C19.1906 228.887 20.0369 231.485 19.8286 234.188C19.0735 233.402 18.8391 232.46 18.8391 231.381C18.8586 227.25 18.5722 223.105 18.6894 219C18.8391 213.875 18.6438 208.756 18.8912 203.643C18.9563 202.247 19.5031 200.87 19.8221 199.486L19.8286 199.479Z" fill="#0E0D0F"/>
<path d="M225.589 231.589V227.698C224.808 226.574 225.198 225.334 225.244 224.125C225.693 222.118 225.439 220.078 225.439 218.052C225.439 215.973 225.686 213.881 225.25 211.822C225.061 210.601 225.172 209.373 225.133 208.152C225.14 205.917 225.12 203.676 225.146 201.441C225.153 200.766 225.022 200.038 225.595 199.479C225.888 199.7 225.94 200.019 225.914 200.35C225.452 206.995 226.962 213.576 226.578 220.221C226.52 221.189 226.793 222.222 226.533 223.112C225.719 225.899 226.246 228.809 225.595 231.589H225.589Z" fill="#0E0E0F"/>
<path d="M21.1305 176.126C21.1956 180.901 20.5121 185.63 20.1997 190.378C20.0369 192.847 20.1736 195.328 20.1476 197.803C20.1476 198.368 20.3624 198.998 19.8351 199.479C19.8351 195.439 19.6203 191.385 19.9002 187.371C20.1606 183.616 19.783 179.77 21.1371 176.126H21.1305Z" fill="#0E0D0F"/>
<path d="M25.0299 102.832C25.2187 108.314 24.789 113.771 24.3138 119.215C24.1381 121.254 24.1381 123.281 24.0534 125.314C24.0339 125.834 24.2292 126.406 23.7345 126.828C23.7475 122.898 23.3894 118.929 23.8712 115.057C24.3594 111.108 24.7955 107.191 24.776 103.215C24.776 103.085 24.9453 102.955 25.0364 102.825L25.0299 102.832Z" fill="#0E0D0F"/>
<path d="M28.6038 42.5029C28.721 47.0696 28.1286 51.5778 27.6795 56.1056C27.4581 58.3467 27.6469 60.6203 27.6209 62.8809C27.6144 63.4461 27.8357 64.0762 27.3084 64.5569C27.3084 61.4778 27.1977 58.3987 27.3344 55.326C27.5167 51.1751 27.7706 47.0177 28.3369 42.8927C28.3565 42.7498 28.5127 42.6328 28.6038 42.5029Z" fill="#0E0D0F"/>
<path d="M27.3017 66.5059C27.3343 70.5789 26.7809 74.6129 26.4034 78.6599C26.1495 81.3817 26.3448 84.1425 26.3122 86.8903C26.3057 87.4555 26.5271 88.0856 25.9998 88.5663C25.9998 84.961 25.824 81.3427 26.0518 77.7504C26.2927 73.9958 26.1234 70.1696 27.3017 66.5124V66.5059Z" fill="#0E0D0F"/>
<path d="M26.0066 89.21C26.2149 93.5363 25.1212 97.8042 25.3361 102.131C25.3491 102.358 25.1408 102.598 25.0301 102.832C25.0626 98.928 24.8739 95.0239 25.3491 91.1328C25.4337 90.4377 25.5313 89.7621 26.0066 89.21Z" fill="#0E0D0F"/>
<path d="M23.7282 249.427C25.4077 251.337 26.0522 253.838 27.5104 255.897C28.578 257.411 29.6 258.964 30.7197 260.445C30.9475 260.75 31.2079 261.016 31.2014 261.426C29.6065 259.99 28.3501 258.307 27.2825 256.437C26.254 254.644 25.1734 252.883 24.1774 251.064C23.8779 250.512 23.7022 250.019 23.7217 249.421L23.7282 249.427Z" fill="#0E0D0F"/>
<path d="M274.021 137.208C274.236 137.208 274.457 137.208 274.672 137.208C274.763 140.456 273.722 143.581 273.643 146.816C273.63 147.381 273.318 147.953 272.719 148.232C272.133 147.504 272.719 146.731 272.615 145.978C272.634 145.361 272.849 144.789 273.045 144.217C273.409 143.315 273.201 142.366 273.253 141.437C273.253 140.918 273.259 140.398 273.377 139.885C273.722 139.086 273.435 138.17 273.832 137.377C273.891 137.319 273.956 137.254 274.014 137.195L274.021 137.208Z" fill="#0E0E0F"/>
<path d="M184.629 280.238C187.324 279.361 190.052 278.555 192.715 277.575C194.303 276.99 195.781 276.119 197.31 275.379C196.256 276.776 194.609 277.308 193.118 277.906C191.269 278.646 189.316 279.153 187.513 280.043C186.602 280.491 185.593 280.16 184.636 280.244L184.629 280.238Z" fill="#0E0D0F"/>
<path d="M31.2077 261.432C32.9653 262.607 33.9548 264.511 35.4846 265.914C36.1551 266.525 37.3073 266.732 37.3789 267.921C34.9378 266.122 32.5682 264.251 31.2012 261.432H31.2077Z" fill="#0E0D0F"/>
<path d="M42.2546 271.806C44.227 272.994 46.0562 274.443 48.2305 275.288C48.7513 275.489 49.1549 275.84 49.4023 276.346C46.8049 275.171 43.9536 274.391 42.248 271.806H42.2546Z" fill="#0E0D0F"/>
<path d="M19.8287 234.513C20.2648 236.89 20.6945 239.268 21.1306 241.652C19.8873 240.541 20.0826 238.962 19.8612 237.546C19.705 236.559 19.8287 235.526 19.8287 234.519V234.513Z" fill="#0E0D0F"/>
<path d="M225.588 199.48V208.236C224.989 208.236 224.885 207.762 224.872 207.359C224.775 204.748 224.729 202.13 224.892 199.519C224.911 199.246 225.061 199.018 225.263 198.83H225.588V199.48Z" fill="#100F12"/>
<path d="M37.3789 267.915C38.6288 268.571 39.5401 269.649 40.6273 270.513C39.1626 270.117 37.9518 269.416 37.3789 267.915Z" fill="#0E0D0F"/>
<path d="M49.4092 276.346C51.0301 276.112 51.9154 277.658 53.3085 277.97C51.642 278.302 50.6721 276.97 49.4092 276.346Z" fill="#0E0D0F"/>
<path d="M21.1305 241.97C21.5471 243.275 21.7359 244.653 22.4325 245.861C20.8115 244.958 21.1696 243.399 21.1305 241.97Z" fill="#0E0D0F"/>
<path d="M22.4258 246.186C22.6992 247.329 23.7603 248.16 23.7278 249.427C22.7969 248.544 22.1785 247.537 22.4258 246.186Z" fill="#0E0D0F"/>
<path d="M57.2075 279.27C58.2881 279.594 59.3753 279.919 60.4559 280.244C59.3167 280.101 57.9431 280.751 57.2075 279.27Z" fill="#0E0D0F"/>
<path d="M53.3081 277.97C54.1609 277.892 54.6947 278.445 55.261 278.945C54.4017 279.036 53.6987 278.815 53.3081 277.97Z" fill="#0E0D0F"/>
<path d="M40.9526 270.831C41.3888 271.156 41.8184 271.481 42.2546 271.805C41.5515 271.838 40.9982 271.669 40.9526 270.831Z" fill="#0E0D0F"/>
<path d="M55.2612 278.945C55.9122 279.048 56.6413 278.678 57.2142 279.269C56.5632 279.165 55.8341 279.529 55.2612 278.945Z" fill="#0E0D0F"/>
<path d="M21.7752 170.617C22.2179 165.537 22.7191 160.471 22.8558 155.352C22.96 151.389 22.8949 147.394 23.4091 143.445C23.5979 142.009 23.8323 140.586 24.0471 139.157C23.8323 134.136 24.021 129.101 24.4767 124.132C25.0235 118.175 25.1537 112.218 25.4272 106.255C25.7722 98.5831 26.7421 90.9503 26.7356 83.233C26.7356 78.426 27.5363 73.619 27.9204 68.8054C28.0376 67.3568 27.966 65.8887 27.9464 64.4271C27.9074 60.3866 28.1547 56.3721 28.8838 52.39C28.9685 51.9158 28.9164 51.4221 28.9229 50.9349C29.0336 46.5176 29.0531 42.0938 29.2809 37.6831C29.4632 34.2077 29.9189 30.7388 30.2118 27.27C30.2704 26.6139 30.4722 26.2566 31.1753 26.2826C31.6635 26.3021 32.1517 26.2826 32.6399 26.2826C93.2391 26.2826 153.845 26.2826 214.444 26.2826C216.807 26.2826 216.709 26.2826 216.827 28.6146C217.204 36.4098 218.116 44.1726 217.81 52.0003C217.764 53.215 219.085 54.2089 220.752 54.1504C224.814 54.001 228.844 54.5207 232.899 54.5012C235.334 54.4882 237.703 54.7481 240.047 55.5146C241.811 56.0927 243.699 56.1122 245.489 56.8853C248.392 58.139 251.289 59.3732 253.978 61.0492C258.508 63.875 262.323 67.4802 265.467 71.7741C267.479 74.5219 269.217 77.4971 270.538 80.6087C271.163 82.0767 271.873 83.6488 272.081 85.3183C273.715 92.23 273.618 99.2782 273.943 106.307C274.197 111.815 274.256 117.324 274.145 122.826C274.034 128.166 273.858 133.506 273.644 138.839C273.468 143.113 272.889 147.381 271.137 151.383C270.942 151.837 271.027 152.351 270.779 152.779C270.363 153.864 269.627 154.826 269.477 156.021C268.188 157.911 267.14 159.944 265.904 161.861C263.169 164.706 261.021 168.116 257.623 170.318C257.415 170.455 257.291 170.734 257.128 170.942C255.501 171.741 254.297 173.203 252.578 173.859C250.254 175.405 247.696 176.451 245.105 177.425C241.147 178.711 236.981 178.919 232.945 179.809C232.469 179.913 231.975 179.848 231.487 179.855C229.703 179.868 227.913 179.77 226.129 179.894C224.319 180.017 224.065 180.283 224.15 182.076C224.365 186.591 224.137 191.138 225.087 195.601C225.185 196.069 225.1 196.569 225.107 197.056C225.192 202.5 225.205 207.937 225.478 213.38C225.719 218.129 225.576 222.943 225.159 227.717C225.146 227.88 225.094 228.042 225.113 228.198C225.543 232.401 224.3 236.435 223.714 240.527C223.467 242.262 222.776 244.029 222.158 245.744C221.514 247.536 220.785 249.29 220.068 251.057C218.617 251.759 218.773 253.435 217.94 254.559C215.798 257.469 213.891 260.528 211.397 263.198C209.451 265.284 207.55 267.434 205.285 269.149C202.518 271.24 199.726 273.287 196.659 274.995C193.053 277.002 189.193 278.204 185.345 279.503C184.844 279.672 184.278 279.64 183.751 279.731C179.532 280.439 175.281 280.835 171.044 281.329C156.416 283.018 141.763 281.926 127.129 282.147C112.456 282.368 97.7764 282.284 83.1035 282.134C78.7159 282.089 74.3283 281.348 69.9408 280.971C68.7039 280.861 67.2522 281.303 66.2497 280.796C63.7044 279.51 60.8467 279.939 58.2037 278.906C56.5307 278.25 54.5257 277.788 52.8267 277.087C50.2358 276.021 47.7751 274.547 45.3209 273.118C40.2498 270.169 36.357 265.907 32.4251 261.73C29.4892 258.606 27.2564 254.929 25.336 251.038C24.1512 248.641 23.344 246.107 22.2048 243.71C21.5994 242.444 21.9965 241.027 21.4822 239.761C20.0501 236.227 20.4537 232.466 20.1998 228.789C20.1217 227.659 19.9655 226.548 19.8548 225.431C19.4382 221.026 19.2689 216.615 20.1412 212.237C20.1738 212.081 20.1738 211.912 20.1608 211.75C19.9459 207.053 20.6165 202.383 20.5058 197.686C20.4016 193.275 21.0396 188.904 21.3846 184.512C21.7491 179.907 22.0095 175.262 21.7882 170.617H21.7752Z" fill="#232126" stroke="#e97451" stroke-width="9" stroke-miterlimit="10"/>
<path d="M270.773 152.78C270.747 151.864 270.707 150.961 271.391 150.182C271.619 149.922 271.684 149.493 271.756 149.129C272.55 144.835 273.513 140.568 273.383 136.144C273.162 128.543 274.008 120.956 273.676 113.356C273.416 107.431 273.559 101.501 273.279 95.5892C273.168 93.2636 273.565 90.7562 272.27 88.5085C271.736 87.5796 272.146 86.3843 272.074 85.3125C273.097 87.9239 273.494 90.6717 273.669 93.4325C273.832 95.9789 274.001 98.4929 274.431 101.033C274.704 102.65 274.678 104.515 274.678 106.275C274.672 113.193 274.743 120.112 274.646 127.023C274.6 130.421 274.242 133.812 274.027 137.203C273.578 138.028 274.138 138.976 273.702 139.794V141.418C273.259 142.354 273.8 143.4 273.376 144.335C273.266 144.874 273.162 145.414 273.051 145.959C272.758 146.693 272.673 147.492 272.4 148.233C272.218 149.876 271.612 151.364 270.773 152.773V152.78Z" fill="#1B191D"/>
<path d="M220.062 251.052C220.062 250.564 220.029 250.077 220.296 249.635C221.917 246.894 222.236 243.685 223.505 240.807C223.818 240.106 223.714 239.222 223.798 238.423C224.176 234.863 225.12 231.401 225.022 227.744C224.925 224.061 225.1 220.338 225.094 216.655C225.087 209.782 225.478 202.858 224.762 196.05C224.254 191.21 224.091 186.41 223.942 181.577C223.896 180.115 224.521 179.57 225.855 179.706C230.972 180.245 235.907 178.745 240.939 178.309C242.299 178.192 243.568 177.134 245.098 177.426C242.755 178.764 240.066 178.745 237.527 179.329C234.357 180.057 231.128 180.05 227.893 180.031C224.423 180.005 223.766 180.615 224.358 183.915C224.723 185.942 224.723 187.988 224.84 189.989C225.009 192.932 225.452 195.874 225.27 198.837C225.27 201.468 225.263 204.098 225.276 206.729C225.276 207.242 225.1 207.821 225.595 208.243V211.809C225.855 215.915 225.855 220.027 225.595 224.132V227.698C225.035 228.231 225.237 228.933 225.289 229.537C225.628 233.519 224.71 237.397 223.805 241.152C222.991 244.53 222.138 248.063 220.068 251.045L220.062 251.052Z" fill="#19171B"/>
<path d="M245.092 177.426C247.585 176.237 250.078 175.048 252.565 173.859C251.999 175.152 250.567 175.314 249.551 175.867C248.204 176.594 246.693 177.257 245.085 177.432L245.092 177.426Z" fill="#19171B"/>
<path d="M265.891 161.861C265.728 160.789 266.62 160.191 267.134 159.529C268 158.405 268.019 156.729 269.471 156.027C268.579 158.158 267.414 160.12 265.897 161.867L265.891 161.861Z" fill="#1B191D"/>
<path d="M252.565 173.859C253.984 172.742 255.325 171.488 257.115 170.942C255.657 172.008 254.616 173.716 252.565 173.859Z" fill="#19171B"/>
<path d="M269.471 156.021C269.295 154.696 269.894 153.682 270.773 152.779C270.896 154.085 269.894 154.936 269.471 156.021Z" fill="#1B191D"/>
<path d="M272.394 148.238C272.374 147.413 272.498 146.627 273.044 145.965C272.934 146.725 272.83 147.478 272.719 148.238H272.394Z" fill="#0E0E10"/>
<path d="M225.588 224.132V211.809C225.875 212.029 225.914 212.341 225.914 212.673C225.914 216.206 225.914 219.74 225.914 223.274C225.914 223.605 225.881 223.917 225.588 224.138V224.132Z" fill="#100F12"/>
<path d="M273.37 144.342C273.513 143.374 273.044 142.334 273.695 141.425C273.552 142.393 274.021 143.432 273.37 144.342Z" fill="#0E0E10"/>
<path d="M273.696 139.807C273.839 138.943 273.37 138.007 274.021 137.215C273.878 138.079 274.347 139.014 273.696 139.807Z" fill="#0E0E10"/>
<path d="M247.689 116.259C247.689 121.663 247.637 125.938 247.702 130.206C247.767 134.37 247.227 138.469 246.329 142.509C246.068 143.685 245.521 144.906 244.773 145.842C241.57 149.824 237.938 153.124 232.333 153.124C230.022 153.124 227.704 153.344 225.4 153.552C223.499 153.721 223.069 153.331 222.972 151.402C222.679 145.276 222.431 139.151 221.937 133.044C221.787 131.161 221.644 129.277 221.709 127.406C221.865 122.924 221.559 118.448 221.279 113.992C220.856 107.223 220.459 100.46 220.309 93.6786C220.231 90.0928 219.912 86.4875 219.749 82.8952C219.652 80.7775 220.068 80.5242 222.164 80.4397C226.878 80.2449 231.584 80.4397 236.16 81.5246C239.246 82.2586 241.609 84.3763 243.731 86.7734C246.602 90.0214 246.941 93.9969 247.357 97.9855C248.034 104.449 247.5 110.932 247.683 116.265L247.689 116.259Z" fill="#010101"/>
<path d="M63.9843 106.326C63.7695 112.686 63.6198 119.046 63.3073 125.399C63.0795 130.082 62.8451 134.759 62.6889 139.443C62.4155 147.849 62.0965 156.248 61.6799 164.648C61.439 169.494 61.2242 174.333 61.068 179.179C60.9117 184.136 60.6904 189.086 60.4105 194.035C60.1696 198.284 56.2573 201.538 52.1041 201.071C48.0745 200.616 44.9889 196.368 45.6855 192.249C45.7506 191.879 45.7766 191.502 45.7896 191.125C46.0305 184.012 46.1932 176.899 46.5317 169.792C46.7856 164.518 46.9418 159.236 47.1827 153.962C47.4236 148.635 47.6058 143.302 47.8402 137.968C48.0615 132.798 48.2568 127.633 48.4847 122.463C48.719 117.188 48.8883 111.906 49.1486 106.638C49.2788 104.007 49.1031 101.221 51.082 98.973C53.087 96.6929 56.088 95.7444 58.8156 96.6864C61.9598 97.7712 63.9323 100.298 64.0299 103.403C64.0625 104.378 64.0299 105.346 64.0299 106.32C64.0104 106.32 63.9909 106.32 63.9713 106.32L63.9843 106.326Z" fill="#666569"/>
</svg>
