<svg width="69" height="68" viewBox="0 0 69 68" fill="none" xmlns="http://www.w3.org/2000/svg">
<g clip-path="url(#clip0_210_4)">
<path d="M34.5 68C53.2777 68 68.5 52.7777 68.5 34C68.5 15.2223 53.2777 0 34.5 0C15.7223 0 0.5 15.2223 0.5 34C0.5 52.7777 15.7223 68 34.5 68Z" fill="#F6D738"/>
<path d="M34.5001 62.8557C50.4366 62.8557 63.3557 49.9366 63.3557 34.0001C63.3557 18.0636 50.4366 5.14453 34.5001 5.14453C18.5636 5.14453 5.64453 18.0636 5.64453 34.0001C5.64453 49.9366 18.5636 62.8557 34.5001 62.8557Z" fill="#F3CC30"/>
<path d="M49.5973 9.37207C52.4704 13.8579 54.1367 19.1919 54.1367 24.9146C54.1367 40.8513 41.2178 53.7702 25.2812 53.7702C19.7469 53.7702 14.5768 52.211 10.1841 49.5092C15.3125 57.515 24.2863 62.8222 34.5002 62.8222C50.4369 62.8222 63.3558 49.9033 63.3558 33.9667C63.3558 23.5653 57.8516 14.4501 49.5973 9.37207Z" fill="#EDBD31"/>
<path d="M10.6987 36.641C10.6987 22.573 22.1024 11.1694 36.1704 11.1694C44.3936 11.1694 51.7044 15.0662 56.3616 21.1134C51.9635 13.4781 43.7189 8.33691 34.2739 8.33691C20.2059 8.33691 8.80225 19.7406 8.80225 33.8085C8.80225 39.6533 10.7726 45.0376 14.0827 49.3361C11.9302 45.5988 10.6977 41.2639 10.6977 36.641H10.6987Z" fill="#FFE25E"/>
</g>
<defs>
<clipPath id="clip0_210_4">
<rect width="68" height="68" fill="white" transform="translate(0.5)"/>
</clipPath>
</defs>
</svg>
